<?xml version="1.0" encoding="iso-8859-1"?>
<!-- Generator: Adobe Illustrator 19.0.0, SVG Export Plug-In . SVG Version: 6.00 Build 0)  -->
<svg version="1.1" id="Layer_1" xmlns="http://www.w3.org/2000/svg" xmlns:xlink="http://www.w3.org/1999/xlink" x="0px" y="0px"
	 viewBox="0 0 512 512" style="enable-background:new 0 0 512 512;" xml:space="preserve">
<path style="fill:#D1F4FF;" d="M256,102.4c-12.117,0-21.943,9.826-21.943,21.943v87.771c0,12.12,9.826,21.943,21.943,21.943
	c12.12,0,21.943-9.823,21.943-21.943v-87.771C277.943,112.226,268.12,102.4,256,102.4z"/>
<path style="fill:#A7E5FF;" d="M277.943,212.114v-87.771c0-12.117-9.823-21.943-21.943-21.943v131.657
	C268.12,234.057,277.943,224.234,277.943,212.114z"/>
<path style="fill:#E68842;" d="M256,14.629c-36.298,0-65.829,29.532-65.829,65.829c0,36.298,29.532,65.829,65.829,65.829
	c36.299,0,65.829-29.531,65.829-65.829C321.829,44.161,292.299,14.629,256,14.629z"/>
<path style="fill:#DD4C42;" d="M321.829,80.457c0-36.298-29.529-65.829-65.829-65.829v131.657
	C292.299,146.286,321.829,116.755,321.829,80.457z"/>
<path style="fill:#EEB784;" d="M109.714,277.943H21.943C9.826,277.943,0,287.769,0,299.886v87.771
	C0,399.775,9.826,409.6,21.943,409.6h87.771c12.12,0,21.943-9.825,21.943-21.943v-87.771
	C131.657,287.769,121.834,277.943,109.714,277.943z"/>
<path style="fill:#E68842;" d="M490.057,277.943h-87.771c-12.117,0-21.943,9.826-21.943,21.943v87.771
	c0,12.118,9.826,21.943,21.943,21.943h87.771c12.12,0,21.943-9.825,21.943-21.943v-87.771
	C512,287.769,502.177,277.943,490.057,277.943z"/>
<path style="fill:#408BAF;" d="M402.286,190.171H109.714c-12.117,0-21.943,9.826-21.943,21.943v263.314
	c0,12.118,9.826,21.943,21.943,21.943h292.571c12.12,0,21.943-9.825,21.943-21.943V212.114
	C424.229,199.997,414.405,190.171,402.286,190.171z"/>
<g>
	<path style="fill:#387896;" d="M402.286,190.171H256v307.2h146.286c12.12,0,21.943-9.825,21.943-21.943V212.114
		C424.229,199.997,414.405,190.171,402.286,190.171z"/>
	<path style="fill:#387896;" d="M204.8,336.457c-16.131,0-29.257-13.123-29.257-29.257c0-16.131,13.126-29.257,29.257-29.257
		c16.134,0,29.257,13.126,29.257,29.257C234.057,323.334,220.934,336.457,204.8,336.457z"/>
</g>
<path style="fill:#275366;" d="M307.2,336.457c-16.131,0-29.257-13.123-29.257-29.257c0-16.131,13.126-29.257,29.257-29.257
	c16.134,0,29.257,13.126,29.257,29.257C336.457,323.334,323.334,336.457,307.2,336.457z"/>
<path style="fill:#387896;" d="M314.514,409.6H197.486c-12.117,0-21.943-9.825-21.943-21.943c0-12.118,9.826-21.943,21.943-21.943
	h117.029c12.12,0,21.943,9.825,21.943,21.943C336.457,399.775,326.634,409.6,314.514,409.6z"/>
<path style="fill:#275366;" d="M314.514,365.714H256V409.6h58.514c12.12,0,21.943-9.825,21.943-21.943
	C336.457,375.539,326.634,365.714,314.514,365.714z"/>
<g>
</g>
<g>
</g>
<g>
</g>
<g>
</g>
<g>
</g>
<g>
</g>
<g>
</g>
<g>
</g>
<g>
</g>
<g>
</g>
<g>
</g>
<g>
</g>
<g>
</g>
<g>
</g>
<g>
</g>
</svg>
